<?xml version="1.0" encoding="utf-8"?>
<!-- Generator: Adobe Illustrator 27.8.1, SVG Export Plug-In . SVG Version: 6.00 Build 0)  -->
<svg version="1.1" id="레이어_1" xmlns="http://www.w3.org/2000/svg" xmlns:xlink="http://www.w3.org/1999/xlink" x="0px"
	 y="0px" viewBox="0 0 40 40" style="enable-background:new 0 0 40 40;" xml:space="preserve">
<style type="text/css">
	.st0{fill:#FE902F;}
</style>
<g>
	<g>
		<path class="st0" d="M12.6,7.8h13.8V5.2c0-2.8-2.2-4.9-4.9-4.9H5.1c-2.8,0-4.9,2.2-4.9,4.9v16.6c0,2.8,2.2,4.9,4.9,4.9h2.7V12.9
			C7.7,10.1,10,7.8,12.6,7.8z"/>
		<path class="st0" d="M35.1,13.7h-2.7v13.8c0,2.8-2.2,4.9-4.9,4.9H13.7v2.7c0,2.8,2.2,4.9,4.9,4.9h16.6c2.8,0,4.9-2.2,4.9-4.9V18.7
			C40,16,37.9,13.7,35.1,13.7z"/>
		<path class="st0" d="M13.6,18.7v7.9h7.9c2.8,0,4.9-2.2,4.9-4.9v-7.9h-7.9C15.9,13.7,13.6,16,13.6,18.7z"/>
	</g>
</g>
</svg>
