<svg width="36" height="36" viewBox="0 0 36 36" fill="none" xmlns="http://www.w3.org/2000/svg">
<g clip-path="url(#clip0_1020_754)">
<mask id="mask0_1020_754" style="mask-type:luminance" maskUnits="userSpaceOnUse" x="0" y="0" width="36" height="36">
<path d="M36 0H0V36H36V0Z" fill="white"/>
</mask>
<g mask="url(#mask0_1020_754)">
<path d="M21.039 6.35294H0V2.32941C0 1.05882 1.05195 0 2.31429 0H18.7013C19.987 0 21.039 1.05882 21.039 2.32941V6.35294Z" fill="#FE902F"/>
<path d="M6.31169 21.1765V0H2.31429C1.05195 0 0 1.05882 0 2.32941V18.8235C0 20.1176 1.05195 21.1765 2.31429 21.1765H6.31169Z" fill="#FE902F"/>
<path d="M14.9609 29.6484H35.9999V33.672C35.9999 34.9661 34.948 36.0014 33.6856 36.0014H17.2752C15.9895 36.0014 14.9609 34.9426 14.9609 33.672V29.6484Z" fill="#FE902F"/>
<path d="M29.6875 14.8242V36.0007H33.6849C34.9706 36.0007 35.9992 34.9419 35.9992 33.6713V17.1536C35.9992 15.8595 34.9472 14.8242 33.6849 14.8242H29.6875Z" fill="#FE902F"/>
<path d="M21.6223 24.3543H11.5703V14.2367C11.5703 12.8014 12.7158 11.6484 14.1417 11.6484H24.1937V21.7661C24.1937 23.2014 23.0482 24.3543 21.6223 24.3543Z" fill="#FE902F"/>
</g>
</g>
<defs>
<clipPath id="clip0_1020_754">
<rect width="36" height="36" fill="white"/>
</clipPath>
</defs>
</svg>
