<?xml version="1.0" encoding="utf-8"?>
<!-- Generator: Adobe Illustrator 27.8.1, SVG Export Plug-In . SVG Version: 6.00 Build 0)  -->
<svg version="1.1" id="레이어_1" xmlns="http://www.w3.org/2000/svg" xmlns:xlink="http://www.w3.org/1999/xlink" x="0px"
	 y="0px" viewBox="0 0 30 30" style="enable-background:new 0 0 30 30;" xml:space="preserve">
<style type="text/css">
	.st0{fill:#FFFFFF;}
</style>
<path class="st0" d="M5.8,20.7c1.1,0.9,2.8,0.9,3.8,0l3.5-3.1v9.7c0,1.3,1.2,2.4,2.7,2.4s2.7-1.1,2.7-2.4v-9.7l3.5,3.1
	c1.1,0.9,2.8,0.9,3.8,0c1.1-0.9,1.1-2.5,0-3.4L17.8,10c-1.1-0.9-2.8-0.9-3.8,0l-8.1,7.3C4.7,18.2,4.7,19.8,5.8,20.7z M5-4.4"/>
<g>
	<line class="st0" x1="7.4" y1="3.2" x2="24.3" y2="3.2"/>
	<path class="st0" d="M24.3,5.8H7.4C6,5.8,4.9,4.6,4.9,3.2S6,0.6,7.4,0.6h16.9c1.3,0,2.4,1.2,2.4,2.6S25.6,5.8,24.3,5.8z"/>
</g>
</svg>
