<svg width="20" height="20" viewBox="0 0 20 20" fill="none" xmlns="http://www.w3.org/2000/svg">
<path d="M2.41667 19.75C1.82083 19.75 1.31076 19.5378 0.886458 19.1135C0.462153 18.6892 0.25 18.1792 0.25 17.5833V2.41667C0.25 1.82083 0.462153 1.31076 0.886458 0.886458C1.31076 0.462153 1.82083 0.25 2.41667 0.25H12.1667V5.66667H14.3333V7.83333H19.75V17.5833C19.75 18.1792 19.5378 18.6892 19.1135 19.1135C18.6892 19.5378 18.1792 19.75 17.5833 19.75H2.41667ZM3.5 15.4167H16.5L12.4375 10L9.1875 14.3333L6.75 11.0833L3.5 15.4167ZM15.4167 6.75V4.58333H13.25V2.41667H15.4167V0.25H17.5833V2.41667H19.75V4.58333H17.5833V6.75H15.4167Z" fill="white"/>
</svg>
