<svg width="16" height="16" viewBox="0 0 16 16" fill="none" xmlns="http://www.w3.org/2000/svg">
<path d="M8.0026 1.33423C5.4226 1.33423 3.33594 3.4209 3.33594 6.0009C3.33594 9.50089 8.0026 14.6676 8.0026 14.6676C8.0026 14.6676 12.6693 9.50089 12.6693 6.0009C12.6693 3.4209 10.5826 1.33423 8.0026 1.33423ZM4.66927 6.0009C4.66927 4.1609 6.1626 2.66756 8.0026 2.66756C9.8426 2.66756 11.3359 4.1609 11.3359 6.0009C11.3359 7.9209 9.41594 10.7942 8.0026 12.5876C6.61594 10.8076 4.66927 7.90089 4.66927 6.0009Z" fill="#434343"/>
<path d="M8.0026 7.66756C8.92308 7.66756 9.66927 6.92137 9.66927 6.0009C9.66927 5.08042 8.92308 4.33423 8.0026 4.33423C7.08213 4.33423 6.33594 5.08042 6.33594 6.0009C6.33594 6.92137 7.08213 7.66756 8.0026 7.66756Z" fill="#434343"/>
</svg>
