<svg width="16" height="16" viewBox="0 0 16 16" fill="none" xmlns="http://www.w3.org/2000/svg">
<path d="M5.76797 15L4.5013 12.8333L1.98464 12.3167L2.26797 9.86667L0.667969 8L2.26797 6.15L1.98464 3.7L4.5013 3.18333L5.76797 1L8.0013 2.03333L10.2346 1L11.518 3.18333L14.018 3.7L13.7346 6.15L15.3346 8L13.7346 9.86667L14.018 12.3167L11.518 12.8333L10.2346 15L8.0013 13.9667L5.76797 15ZM6.21797 13.6833L8.0013 12.9333L9.83464 13.6833L10.9513 12.0167L12.9013 11.5167L12.7013 9.53333L14.0513 8L12.7013 6.43333L12.9013 4.45L10.9513 3.98333L9.8013 2.31667L8.0013 3.06667L6.16797 2.31667L5.0513 3.98333L3.1013 4.45L3.3013 6.43333L1.9513 8L3.3013 9.53333L3.1013 11.55L5.0513 12.0167L6.21797 13.6833ZM7.28464 10.2167L11.068 6.46667L10.318 5.78333L7.28464 8.78333L5.7013 7.13333L4.93464 7.88333L7.28464 10.2167Z" fill="black"/>
</svg>
