<?xml version="1.0" encoding="utf-8"?>
<!-- Generator: Adobe Illustrator 27.8.1, SVG Export Plug-In . SVG Version: 6.00 Build 0)  -->
<svg version="1.1" id="레이어_1" xmlns="http://www.w3.org/2000/svg" xmlns:xlink="http://www.w3.org/1999/xlink" x="0px"
	 y="0px" viewBox="0 0 24 24" style="enable-background:new 0 0 24 24;" xml:space="preserve">
<style type="text/css">
	.st0{fill:#FFFFFF;}
</style>
<path class="st0" d="M4.5,3.9c0-1,0.8-1.9,1.9-1.9v1.9v15.4l5.1-3.6c0.3-0.2,0.8-0.2,1.1,0l5.1,3.6V3.9H6.4V2h11.3
	c1,0,1.9,0.8,1.9,1.9v17.2c0,0.4-0.2,0.7-0.5,0.8c-0.3,0.2-0.7,0.1-1-0.1l-6-4.3l-6,4.3c-0.3,0.2-0.7,0.2-1,0.1
	c-0.3-0.2-0.5-0.5-0.5-0.8V3.9z"/>
</svg>
