<svg width="11" height="7" viewBox="0 0 11 7" fill="none" xmlns="http://www.w3.org/2000/svg">
<path d="M5.29297 6.02449C5.17339 6.02449 5.06128 6.00581 4.95665 5.96844C4.85201 5.93107 4.75485 5.86754 4.66517 5.77786L0.539606 1.6523C0.375181 1.48787 0.292969 1.2786 0.292969 1.02449C0.292969 0.770384 0.375181 0.561116 0.539606 0.396692C0.70403 0.232267 0.913298 0.150055 1.16741 0.150055C1.42152 0.150055 1.63079 0.232267 1.79521 0.396692L5.29297 3.89445L8.79073 0.396692C8.95515 0.232267 9.16442 0.150055 9.41853 0.150055C9.67264 0.150055 9.88191 0.232267 10.0463 0.396692C10.2108 0.561116 10.293 0.770384 10.293 1.02449C10.293 1.2786 10.2108 1.48787 10.0463 1.6523L5.92077 5.77786C5.83109 5.86754 5.73393 5.93107 5.62929 5.96844C5.52466 6.00581 5.41255 6.02449 5.29297 6.02449Z" fill="#D0D0D0"/>
</svg>
