<svg width="61" height="60" viewBox="0 0 61 60" fill="none" xmlns="http://www.w3.org/2000/svg">
<path d="M44.168 0C38.948 0 33.938 2.6485 30.668 6.83379C27.398 2.6485 22.388 0 17.168 0C7.92797 0 0.667969 7.91281 0.667969 17.9837C0.667969 30.3433 10.868 40.4142 26.318 55.7166L30.668 60L35.018 55.6839C50.468 40.4142 60.668 30.3433 60.668 17.9837C60.668 7.91281 53.408 0 44.168 0ZM30.968 50.8447L30.668 51.1717L30.368 50.8447C16.088 36.752 6.66797 27.4332 6.66797 17.9837C6.66797 11.4441 11.168 6.53951 17.168 6.53951C21.788 6.53951 26.288 9.77657 27.878 14.2561H33.488C35.048 9.77657 39.548 6.53951 44.168 6.53951C50.168 6.53951 54.668 11.4441 54.668 17.9837C54.668 27.4332 45.248 36.752 30.968 50.8447Z" fill="#FE902F"/>
</svg>
