<svg width="74" height="48" viewBox="0 0 74 48" fill="none" xmlns="http://www.w3.org/2000/svg">
<path d="M51.9987 27.3346C47.9987 27.3346 41.7654 28.468 36.9987 30.668C32.232 28.4346 25.9987 27.3346 21.9987 27.3346C14.7654 27.3346 0.332031 30.9346 0.332031 38.168V47.3346H73.6654V38.168C73.6654 30.9346 59.232 27.3346 51.9987 27.3346ZM38.6654 42.3346H5.33203V38.168C5.33203 36.368 13.8654 32.3346 21.9987 32.3346C30.132 32.3346 38.6654 36.368 38.6654 38.168V42.3346ZM68.6654 42.3346H43.6654V38.168C43.6654 36.6346 42.9987 35.3013 41.932 34.1013C44.8654 33.1013 48.4654 32.3346 51.9987 32.3346C60.132 32.3346 68.6654 36.368 68.6654 38.168V42.3346ZM21.9987 24.0013C28.432 24.0013 33.6654 18.768 33.6654 12.3346C33.6654 5.9013 28.432 0.667969 21.9987 0.667969C15.5654 0.667969 10.332 5.9013 10.332 12.3346C10.332 18.768 15.5654 24.0013 21.9987 24.0013ZM21.9987 5.66797C25.6654 5.66797 28.6654 8.66797 28.6654 12.3346C28.6654 16.0013 25.6654 19.0013 21.9987 19.0013C18.332 19.0013 15.332 16.0013 15.332 12.3346C15.332 8.66797 18.332 5.66797 21.9987 5.66797ZM51.9987 24.0013C58.432 24.0013 63.6654 18.768 63.6654 12.3346C63.6654 5.9013 58.432 0.667969 51.9987 0.667969C45.5654 0.667969 40.332 5.9013 40.332 12.3346C40.332 18.768 45.5654 24.0013 51.9987 24.0013ZM51.9987 5.66797C55.6654 5.66797 58.6654 8.66797 58.6654 12.3346C58.6654 16.0013 55.6654 19.0013 51.9987 19.0013C48.332 19.0013 45.332 16.0013 45.332 12.3346C45.332 8.66797 48.332 5.66797 51.9987 5.66797Z" fill="#FE902F"/>
</svg>
