<svg width="21" height="21" viewBox="0 0 21 21" fill="none" xmlns="http://www.w3.org/2000/svg">
<path d="M11.6836 9.68728V6.08728C11.6836 5.80395 11.5878 5.56645 11.3961 5.37478C11.2044 5.18311 10.9669 5.08728 10.6836 5.08728C10.4003 5.08728 10.1628 5.18311 9.97109 5.37478C9.77943 5.56645 9.68359 5.80395 9.68359 6.08728V10.0623C9.68359 10.1956 9.70859 10.3248 9.75859 10.4498C9.80859 10.5748 9.88359 10.6873 9.98359 10.7873L13.2836 14.0873C13.4669 14.2706 13.7003 14.3623 13.9836 14.3623C14.2669 14.3623 14.5003 14.2706 14.6836 14.0873C14.8669 13.9039 14.9586 13.6706 14.9586 13.3873C14.9586 13.1039 14.8669 12.8706 14.6836 12.6873L11.6836 9.68728ZM10.6836 20.0873C9.30026 20.0873 8.00026 19.8248 6.78359 19.2998C5.56693 18.7748 4.50859 18.0623 3.60859 17.1623C2.70859 16.2623 1.99609 15.2039 1.47109 13.9873C0.946094 12.7706 0.683594 11.4706 0.683594 10.0873C0.683594 8.70395 0.946094 7.40395 1.47109 6.18728C1.99609 4.97061 2.70859 3.91228 3.60859 3.01228C4.50859 2.11228 5.56693 1.39978 6.78359 0.87478C8.00026 0.34978 9.30026 0.0872803 10.6836 0.0872803C12.0669 0.0872803 13.3669 0.34978 14.5836 0.87478C15.8003 1.39978 16.8586 2.11228 17.7586 3.01228C18.6586 3.91228 19.3711 4.97061 19.8961 6.18728C20.4211 7.40395 20.6836 8.70395 20.6836 10.0873C20.6836 11.4706 20.4211 12.7706 19.8961 13.9873C19.3711 15.2039 18.6586 16.2623 17.7586 17.1623C16.8586 18.0623 15.8003 18.7748 14.5836 19.2998C13.3669 19.8248 12.0669 20.0873 10.6836 20.0873Z" fill="#D0D0D0"/>
</svg>
