<svg width="16" height="16" viewBox="0 0 16 16" fill="none" xmlns="http://www.w3.org/2000/svg">
<path d="M7.5487 11.332H8.5487V7.33203H7.5487V11.332ZM7.9984 6.0987C8.15415 6.0987 8.28481 6.04759 8.39036 5.94536C8.49592 5.84314 8.5487 5.71648 8.5487 5.56536C8.5487 5.40481 8.49602 5.27023 8.39066 5.16161C8.2853 5.053 8.15474 4.9987 7.999 4.9987C7.84324 4.9987 7.71259 5.053 7.60703 5.16161C7.50148 5.27023 7.4487 5.40481 7.4487 5.56536C7.4487 5.71648 7.50138 5.84314 7.60673 5.94536C7.7121 6.04759 7.84265 6.0987 7.9984 6.0987ZM8.00313 14.6654C7.08386 14.6654 6.21998 14.4904 5.41146 14.1404C4.60295 13.7904 3.89592 13.3126 3.29036 12.707C2.68481 12.1015 2.20703 11.394 1.85703 10.5847C1.50703 9.77535 1.33203 8.91058 1.33203 7.99036C1.33203 7.07015 1.50703 6.20538 1.85703 5.39605C2.20703 4.5867 2.68481 3.88203 3.29036 3.28203C3.89592 2.68203 4.60337 2.20703 5.41271 1.85703C6.22205 1.50703 7.08682 1.33203 8.00703 1.33203C8.92724 1.33203 9.79201 1.50703 10.6013 1.85703C11.4107 2.20703 12.1154 2.68203 12.7154 3.28203C13.3154 3.88203 13.7904 4.58759 14.1404 5.3987C14.4904 6.20981 14.6654 7.075 14.6654 7.99426C14.6654 8.91353 14.4904 9.77742 14.1404 10.5859C13.7904 11.3944 13.3154 12.1005 12.7154 12.704C12.1154 13.3075 11.4098 13.7853 10.5987 14.1373C9.78759 14.4893 8.9224 14.6654 8.00313 14.6654ZM8.00703 13.6654C9.57925 13.6654 10.9154 13.1126 12.0154 12.007C13.1154 10.9015 13.6654 9.56259 13.6654 7.99036C13.6654 6.41814 13.1164 5.08203 12.0185 3.98203C10.9206 2.88203 9.58064 2.33203 7.9987 2.33203C6.43203 2.33203 5.09592 2.88099 3.99036 3.9789C2.88481 5.07682 2.33203 6.41675 2.33203 7.9987C2.33203 9.56536 2.88481 10.9015 3.99036 12.007C5.09592 13.1126 6.43481 13.6654 8.00703 13.6654Z" fill="#414141"/>
</svg>
