<svg width="19" height="21" viewBox="0 0 19 21" fill="none" xmlns="http://www.w3.org/2000/svg">
<path d="M6.45508 15.1722C5.75508 15.1722 5.16341 14.9306 4.68008 14.4472C4.19674 13.9639 3.95508 13.3722 3.95508 12.6722C3.95508 11.9722 4.19674 11.3806 4.68008 10.8972C5.16341 10.4139 5.75508 10.1722 6.45508 10.1722C7.15508 10.1722 7.74675 10.4139 8.23008 10.8972C8.71341 11.3806 8.95508 11.9722 8.95508 12.6722C8.95508 13.3722 8.71341 13.9639 8.23008 14.4472C7.74675 14.9306 7.15508 15.1722 6.45508 15.1722ZM2.45508 20.6722C1.90508 20.6722 1.43424 20.4764 1.04258 20.0847C0.650911 19.6931 0.455078 19.2222 0.455078 18.6722V4.67224C0.455078 4.12224 0.650911 3.65141 1.04258 3.25974C1.43424 2.86807 1.90508 2.67224 2.45508 2.67224H3.45508V1.67224C3.45508 1.38891 3.55091 1.15141 3.74258 0.959741C3.93424 0.768075 4.17174 0.672241 4.45508 0.672241C4.73841 0.672241 4.97591 0.768075 5.16758 0.959741C5.35924 1.15141 5.45508 1.38891 5.45508 1.67224V2.67224H13.4551V1.67224C13.4551 1.38891 13.5509 1.15141 13.7426 0.959741C13.9342 0.768075 14.1717 0.672241 14.4551 0.672241C14.7384 0.672241 14.9759 0.768075 15.1676 0.959741C15.3592 1.15141 15.4551 1.38891 15.4551 1.67224V2.67224H16.4551C17.0051 2.67224 17.4759 2.86807 17.8676 3.25974C18.2592 3.65141 18.4551 4.12224 18.4551 4.67224V18.6722C18.4551 19.2222 18.2592 19.6931 17.8676 20.0847C17.4759 20.4764 17.0051 20.6722 16.4551 20.6722H2.45508ZM2.45508 18.6722H16.4551V8.67224H2.45508V18.6722Z" fill="black"/>
</svg>
