<?xml version="1.0" encoding="utf-8"?>
<!-- Generator: Adobe Illustrator 27.8.1, SVG Export Plug-In . SVG Version: 6.00 Build 0)  -->
<svg version="1.1" id="레이어_1" xmlns="http://www.w3.org/2000/svg" xmlns:xlink="http://www.w3.org/1999/xlink" x="0px"
	 y="0px" viewBox="0 0 61 60" style="enable-background:new 0 0 61 60;" xml:space="preserve">
<style type="text/css">
	.st0{fill:#FE902F;}
</style>
<path class="st0" d="M26,11.8l-4.8,4.8c-1.4,0.4-2.8,1.1-3.9,2.1L14.7,21c-1,0.9-2.2,1.3-3.5,1.3H9.3v12.1c1.9,0.1,3.8,0.8,5.1,2.2
	l3.4,3.4l0.7,0.7l0,0l2.6,2.6c0.6,0.6,1.6,0.6,2.1,0c0.2-0.2,0.3-0.3,0.3-0.5c0.3-0.7,0.9-1.3,1.6-1.4c0.8-0.2,1.6,0.1,2.1,0.6l1,1
	c1.1,1.1,2.9,1.1,4,0c0.5-0.5,0.8-1.2,0.8-1.8c0-0.8,0.5-1.6,1.3-1.9c0.8-0.4,1.6-0.3,2.3,0.2c0.9,0.6,2.1,0.5,2.9-0.2
	c0.9-0.9,0.9-2.3,0-3.2l-7.2-7.2L29,31.8c-2.6,2.4-6.5,2.4-9.2,0.1c-3-2.7-3.1-7.3-0.2-10.1l6.6-6.3c2.6-2.4,6-3.8,9.6-3.8
	c3.4,0,6.7,1.3,9.3,3.5l2.8,2.5h3.7h3.8h3.8c0.8,0,1.5,0.7,1.5,1.5V39c0,1.7-1.4,3-3,3h-3c-1.1,0-2.1-0.6-2.6-1.5h-8
	c-0.3,0.6-0.7,1.2-1.3,1.8c-1.6,1.6-3.9,2.3-6,1.9c-0.3,0.7-0.8,1.3-1.4,1.9c-2.6,2.6-6.6,2.8-9.5,0.8c-2.4,2-5.9,1.8-8.1-0.4
	l-2.5-2.6l-0.7-0.7l-3.4-3.4c-0.5-0.5-1.2-0.8-1.9-0.9c0,1.7-1.4,3-3,3h-3c-1.7,0-3-1.4-3-3V19.3c0-0.8,0.7-1.5,1.5-1.5h3.8h3.8h1.9
	c0.2,0,0.4-0.1,0.5-0.2l2.5-2.2c2.6-2.3,6-3.6,9.6-3.6h1C25.1,11.8,25.6,11.8,26,11.8z M51.7,36V22.4h-4.5c-0.6,0-1.1-0.2-1.5-0.6
	l-3.5-3.1c-1.7-1.5-3.9-2.4-6.3-2.4c-2.4,0-4.7,0.9-6.5,2.6l-6.6,6.3c-1,0.9-1,2.5,0,3.4c0.9,0.8,2.2,0.8,3.1,0l6.8-6.3
	c0.9-0.9,2.4-0.8,3.2,0.1c0.9,0.9,0.8,2.4-0.1,3.2l-0.1,0.1l7,7c0.9,0.9,1.6,2.1,1.8,3.3L51.7,36L51.7,36z M6.3,37.5
	c0-0.8-0.7-1.5-1.5-1.5s-1.5,0.7-1.5,1.5c0,0.8,0.7,1.5,1.5,1.5S6.3,38.3,6.3,37.5z M56.2,39c0.8,0,1.5-0.7,1.5-1.5
	c0-0.8-0.7-1.5-1.5-1.5c-0.8,0-1.5,0.7-1.5,1.5C54.7,38.3,55.4,39,56.2,39z"/>
</svg>
