<svg width="19" height="19" viewBox="0 0 19 19" fill="none" xmlns="http://www.w3.org/2000/svg">
<path d="M13.7852 0.222656C12.1718 0.222656 10.6232 1.04128 9.6125 2.3349C8.60178 1.04128 7.05325 0.222656 5.43981 0.222656C2.58383 0.222656 0.339844 2.66842 0.339844 5.7812C0.339844 9.60143 3.49255 12.7142 8.26797 17.444L9.6125 18.768L10.957 17.4339C15.7325 12.7142 18.8852 9.60143 18.8852 5.7812C18.8852 2.66842 16.6412 0.222656 13.7852 0.222656Z" fill="#FE902F"/>
<path d="M13.7852 0.222656C12.1718 0.222656 10.6232 1.04128 9.6125 2.3349C8.60178 1.04128 7.05325 0.222656 5.43981 0.222656C2.58383 0.222656 0.339844 2.66842 0.339844 5.7812C0.339844 9.60143 3.49255 12.7142 8.26797 17.444L9.6125 18.768L10.957 17.4339C15.7325 12.7142 18.8852 9.60143 18.8852 5.7812C18.8852 2.66842 16.6412 0.222656 13.7852 0.222656ZM9.70523 15.9382L9.6125 16.0392L9.51978 15.9382C5.10599 11.5823 2.19438 8.70196 2.19438 5.7812C2.19438 3.75991 3.58527 2.24394 5.43981 2.24394C6.8678 2.24394 8.25869 3.24448 8.75015 4.62907H10.4841C10.9663 3.24448 12.3572 2.24394 13.7852 2.24394C15.6397 2.24394 17.0306 3.75991 17.0306 5.7812C17.0306 8.70196 14.119 11.5823 9.70523 15.9382Z" fill="white"/>
</svg>
