<svg width="19" height="19" viewBox="0 0 19 19" fill="none" xmlns="http://www.w3.org/2000/svg">
<path d="M13.5313 0.222656C11.9179 0.222656 10.3693 1.04128 9.3586 2.3349C8.34788 1.04128 6.79934 0.222656 5.1859 0.222656C2.32992 0.222656 0.0859375 2.66842 0.0859375 5.7812C0.0859375 9.60143 3.23864 12.7142 8.01406 17.444L9.3586 18.768L10.7031 17.4339C15.4786 12.7142 18.6313 9.60143 18.6313 5.7812C18.6313 2.66842 16.3873 0.222656 13.5313 0.222656Z" fill="black" fill-opacity="0.5"/>
<path d="M13.5313 0.222656C11.9179 0.222656 10.3693 1.04128 9.3586 2.3349C8.34788 1.04128 6.79934 0.222656 5.1859 0.222656C2.32992 0.222656 0.0859375 2.66842 0.0859375 5.7812C0.0859375 9.60143 3.23864 12.7142 8.01406 17.444L9.3586 18.768L10.7031 17.4339C15.4786 12.7142 18.6313 9.60143 18.6313 5.7812C18.6313 2.66842 16.3873 0.222656 13.5313 0.222656ZM9.45132 15.9382L9.3586 16.0392L9.26587 15.9382C4.85208 11.5823 1.94047 8.70196 1.94047 5.7812C1.94047 3.75991 3.33137 2.24394 5.1859 2.24394C6.61389 2.24394 8.00479 3.24448 8.49624 4.62907H10.2302C10.7124 3.24448 12.1033 2.24394 13.5313 2.24394C15.3858 2.24394 16.7767 3.75991 16.7767 5.7812C16.7767 8.70196 13.8651 11.5823 9.45132 15.9382Z" fill="white"/>
</svg>
