<?xml version="1.0" encoding="utf-8"?>
<!-- Generator: Adobe Illustrator 27.8.1, SVG Export Plug-In . SVG Version: 6.00 Build 0)  -->
<svg version="1.1" id="레이어_1" xmlns="http://www.w3.org/2000/svg" xmlns:xlink="http://www.w3.org/1999/xlink" x="0px"
	 y="0px" viewBox="0 0 171.1 53.2" style="enable-background:new 0 0 171.1 53.2;" xml:space="preserve">
<style type="text/css">
	.st0{fill:#FE902F;}
</style>
<g>
	<g>
		<path class="st0" d="M23.3,13.6h14v-2.7c0-2.8-2.2-5-5-5H15.6c-2.8,0-5,2.2-5,5v16.8c0,2.8,2.2,5,5,5h2.7v-14
			C18.3,15.8,20.6,13.6,23.3,13.6z"/>
		<path class="st0" d="M46.1,19.6h-2.7v14c0,2.8-2.2,5-5,5h-14v2.7c0,2.8,2.2,5,5,5h16.8c2.8,0,5-2.2,5-5V24.6
			C51.1,21.8,48.9,19.6,46.1,19.6z"/>
		<path class="st0" d="M24.3,24.6v8h8c2.8,0,5-2.2,5-5v-8h-8C26.6,19.6,24.3,21.8,24.3,24.6z"/>
	</g>
	<g>
		<path class="st0" d="M71.8,33.7v-0.5h-4c-1.9,0-2.7-1.2-2.7-2.5c0-1.3,0.7-2.6,2.7-2.6h24.6c2,0,2.7,1.3,2.7,2.6
			c0,1.3-0.8,2.5-2.7,2.5h-2.6v6.8h-6.5v-6.8h-5.1v0.5c0,4.4-3.4,6.5-6.9,6.8c-1.8,0.2-3.2-0.6-3.5-2c-0.2-1.4,0.7-2.4,1.9-2.5
			C70.7,35.8,71.8,35.2,71.8,33.7z M91.3,10.4c1.6,0,2.2,1.2,2.2,2.3s-0.6,2.2-2.2,2.2H73.9c-0.6,0-0.9,0.3-0.9,0.8v0.7h18
			c1.6,0,2.2,1.1,2.2,2.1s-0.6,2.1-2.2,2.1H73v0.7c0,0.6,0.3,0.8,0.9,0.8h17.9c1.6,0,2.2,1.1,2.2,2.2s-0.6,2.2-2.2,2.2H71.1
			c-3.4,0-4.6-1.3-4.6-4.5v-7.1c0-3.1,1.2-4.5,4.6-4.5H91.3z"/>
		<path class="st0" d="M103,38.5c-4.2,0-4.9-1-4.9-5V15.8c0-4,0.8-5,4.9-5h10c1.9,0,2.4,1.5,2.4,2.7c0,1.2-0.6,2.7-2.4,2.7h-7.8
			c-0.6,0-0.8,0.2-0.8,0.9v4.7h6.7c1.9,0,2.6,1.3,2.6,2.7c0,1.3-0.7,2.6-2.6,2.6h-6.7v5.1c0,0.7,0.3,0.9,0.8,0.9h9.6
			c1.9,0,2.4,1.5,2.4,2.7c0,1.2-0.6,2.7-2.4,2.7H103z M119.8,27.1h-2.5c-1.9,0-2.5-1.4-2.5-2.8c0-1.3,0.6-2.8,2.5-2.8h2.5v-8.7
			c0-2,1.5-3.1,3.2-3.1c1.6,0,3.2,1.1,3.2,3.1v26.9h-6.4V27.1z"/>
		<path class="st0" d="M134.7,27c-3.2,0-5-2.4-5-5.1v-0.6c0-2.7,1.7-4.6,5-4.6h6.1v-1.1c0-0.4-0.2-0.6-0.8-0.6h-8
			c-1.5,0-2.1-1.2-2.1-2.2c0-1.1,0.7-2.3,2.1-2.3h10.6c3.3,0,4.6,1.6,4.6,4v6.3h-10.1c-0.6,0-0.8,0.4-0.8,0.8v0.2
			c0,0.4,0.3,0.7,0.8,0.7h10.6c1.5,0,2.1,1.2,2.1,2.3c0,1.1-0.6,2.2-2.1,2.2H134.7z M137.5,39.9c-4.4,0-6.5-2.4-6.5-5.8
			c0-3.3,2-5.8,6.5-5.8h13.8c4.4,0,6.5,2.4,6.5,5.8c0,3.4-2.1,5.8-6.5,5.8H137.5z M149.6,35.5c1.3,0,1.7-0.6,1.7-1.4
			c0-0.8-0.4-1.4-1.7-1.4h-10.3c-1.3,0-1.7,0.6-1.7,1.4c0,0.8,0.4,1.4,1.7,1.4H149.6z M151,12.9c0-2.1,1.5-3.2,3.2-3.2
			c1.7,0,3.2,1.1,3.2,3.2v2.7h1c2,0,2.5,1.5,2.5,2.8c0,1.3-0.6,2.8-2.5,2.8h-1v6.1H151V12.9z"/>
	</g>
</g>
</svg>
