<?xml version="1.0" encoding="utf-8"?>
<!-- Generator: Adobe Illustrator 27.8.1, SVG Export Plug-In . SVG Version: 6.00 Build 0)  -->
<svg version="1.1" id="레이어_1" xmlns="http://www.w3.org/2000/svg" xmlns:xlink="http://www.w3.org/1999/xlink" x="0px"
	 y="0px" viewBox="0 0 178.9 42.6" style="enable-background:new 0 0 178.9 42.6;" xml:space="preserve">
<style type="text/css">
	.st0{fill:#FE902F;}
	.st1{fill:#2B2B2B;}
</style>
<g>
	<path class="st0" d="M19,13.9h8.6v-1.7c0-1.7-1.4-3.1-3.1-3.1H14.2c-1.7,0-3.1,1.4-3.1,3.1v10.3c0,1.7,1.4,3.1,3.1,3.1h1.7v-8.6
		C15.9,15.2,17.3,13.9,19,13.9z"/>
	<path class="st0" d="M33,17.5h-1.7v8.6c0,1.7-1.4,3.1-3.1,3.1h-8.6v1.7c0,1.7,1.4,3.1,3.1,3.1H33c1.7,0,3.1-1.4,3.1-3.1V20.6
		C36.1,18.9,34.7,17.5,33,17.5z"/>
	<path class="st0" d="M19.6,20.6v4.9h4.9c1.7,0,3.1-1.4,3.1-3.1v-4.9h-4.9C21,17.5,19.6,18.9,19.6,20.6z"/>
	<g>
		<path class="st1" d="M48.4,29.4V15.9h-3.3c-1.2,0-1.7-1-1.7-1.9c0-0.9,0.5-1.9,1.7-1.9h11.1c1.3,0,1.7,1,1.7,1.9
			c0,0.9-0.5,1.9-1.7,1.9h-3.3v13.5H48.4z"/>
		<path class="st1" d="M68.4,14.1c0-1.5,1-2.1,2.2-2.1c1.2,0,2.2,0.7,2.2,2.1v9.3c0,4.8-3.8,6.3-6.9,6.3c-3.1,0-6.9-1.5-6.9-6.3
			v-9.3c0-1.5,1-2.1,2.2-2.1c1.2,0,2.2,0.7,2.2,2.1v9.5c0,1.6,1.4,2.4,2.5,2.4s2.5-0.8,2.5-2.4V14.1z"/>
		<path class="st1" d="M78.9,29.4V15.9h-3.3c-1.2,0-1.7-1-1.7-1.9c0-0.9,0.5-1.9,1.7-1.9h11.1c1.3,0,1.7,1,1.7,1.9
			c0,0.9-0.5,1.9-1.7,1.9h-3.3v13.5H78.9z"/>
		<path class="st1" d="M88.7,18.5c0-5,4-6.6,7.2-6.6c3.2,0,7.2,1.6,7.2,6.6v4.7c0,5-4,6.6-7.2,6.6c-3.2,0-7.2-1.6-7.2-6.6V18.5z
			 M98.8,18.4c0-1.9-1.5-2.8-2.8-2.8s-2.8,0.9-2.8,2.8v5c0,1.7,1.6,2.8,2.8,2.8c1.2,0,2.8-1,2.8-2.8V18.4z"/>
		<path class="st1" d="M116.4,22.5l4.1,6.9h-4.9l-3.2-5.8h-2.8v5.8h-4.4V15.5c0-2.5,0.8-3.4,3.4-3.4h4c3.7,0,6.5,1.8,6.5,5.6v0.3
			C119,20,117.9,21.6,116.4,22.5z M109.6,20h2.8c1.4,0,2.2-0.9,2.2-2v-0.2c0-1.1-0.8-2-2.2-2h-2.2c-0.5,0-0.6,0.1-0.6,0.6V20z"/>
		<path class="st1" d="M126.3,13.8c0.4-1.2,1.6-1.8,2.8-1.8c1.1,0,2.2,0.6,2.6,1.8l5.6,15.6h-4.7l-0.8-2.7h-5.5l-0.8,2.7h-4.7
			L126.3,13.8z M127.4,23.1h3.3l-1.6-5.4L127.4,23.1z"/>
		<path class="st1" d="M148.7,22.6V14c0-1.3,0.9-2,2-2s2,0.7,2,2v13.6c0,1.3-1.1,2-2.1,2.1c-1,0.1-2.3-0.3-2.8-1.2l-5.3-9.3v10.3
			h-3.9V14.2c0-1.3,1.2-2,2.2-2.2c1-0.1,2.2,0.3,2.8,1.2L148.7,22.6z"/>
		<path class="st1" d="M168.9,23.6c0,4.4-3.1,6.1-6.8,6.1c-3.7,0-7.5-1.8-7.5-6.5v-4.7c0-4.8,3.7-6.5,7.5-6.5c2,0,3.7,0.5,4.6,1.1
			c0.9,0.6,1.3,1.7,0.8,2.6c-0.4,0.8-1.2,1.1-2,0.9c-0.5-0.1-0.9-0.3-1.2-0.5c-0.5-0.2-1.3-0.3-2.2-0.3c-1.5,0-3.1,0.9-3.1,2.9V23
			c0,2,1.5,2.9,3.1,2.9c1.5,0,2.8-0.7,2.8-2.2v-0.3c0-0.4-0.1-0.5-0.5-0.5h-0.7c-1.2,0-1.7-0.9-1.7-1.8c0-0.9,0.5-1.9,1.7-1.9h2
			c2.5,0,3.2,0.8,3.2,3.2V23.6z"/>
	</g>
</g>
</svg>
